<?xml version="1.0" encoding="UTF-8"?>
<!DOCTYPE svg PUBLIC "-//W3C//DTD SVG 1.1//EN" "http://www.w3.org/Graphics/SVG/1.1/DTD/svg11.dtd">
<!-- Creator: CorelDRAW 2026 -->
<svg xmlns="http://www.w3.org/2000/svg" xml:space="preserve" width="512px" height="512px" version="1.1" style="shape-rendering:geometricPrecision; text-rendering:geometricPrecision; image-rendering:optimizeQuality; fill-rule:evenodd; clip-rule:evenodd"
viewBox="0 0 30.31 30.31"
 xmlns:xlink="http://www.w3.org/1999/xlink"
 xmlns:xodm="http://www.corel.com/coreldraw/odm/2003">
 <defs>
  <style type="text/css">
   <![CDATA[
    .fil4 {fill:#FEFEFE;fill-rule:nonzero}
    .fil3 {fill:url(#id0)}
    .fil2 {fill:url(#id1)}
    .fil0 {fill:url(#id2)}
    .fil1 {fill:url(#id3)}
   ]]>
  </style>
  <radialGradient id="id0" gradientUnits="userSpaceOnUse" gradientTransform="matrix(1.66701 -1.21556 1.64527 2.25632 -30 -23)" cx="-0.29" cy="18.14" r="15.16" fx="-0.29" fy="18.14">
   <stop offset="0" style="stop-opacity:1; stop-color:#AA00BA"/>
   <stop offset="0.25098" style="stop-opacity:1; stop-color:#BF19B4"/>
   <stop offset="0.431373" style="stop-opacity:1; stop-color:#FE4230"/>
   <stop offset="0.54902" style="stop-opacity:1; stop-color:#FE529A"/>
   <stop offset="0.741176" style="stop-opacity:1; stop-color:#DD67EE"/>
   <stop offset="0.94902" style="stop-opacity:1; stop-color:#4B73FF"/>
   <stop offset="1" style="stop-opacity:1; stop-color:#4B73FF"/>
  </radialGradient>
  <radialGradient id="id1" gradientUnits="userSpaceOnUse" gradientTransform="matrix(-1.21556 -1.66701 2.25631 -1.64526 -29 111)" xlink:href="#id0" cx="18.14" cy="30.61" r="8.51" fx="18.14" fy="30.61">
  </radialGradient>
  <radialGradient id="id2" gradientUnits="userSpaceOnUse" gradientTransform="matrix(1.21556 1.66701 -2.25632 1.64527 -3 -20)" xlink:href="#id0" cx="12.18" cy="-0.29" r="15.16" fx="12.18" fy="-0.29">
  </radialGradient>
  <radialGradient id="id3" gradientUnits="userSpaceOnUse" gradientTransform="matrix(-1.66701 1.21556 -1.64527 -2.25632 102 2)" xlink:href="#id0" cx="30.61" cy="12.18" r="15.16" fx="30.61" fy="12.18">
  </radialGradient>
 </defs>
 <g id="Слой_x0020_1">
  <metadata id="CorelCorpID_0Corel-Layer"/>
  <g id="_596373018560">
   <path class="fil0" d="M7.83 1.27c1.69,-1.7 4.44,-1.69 6.14,0.01l1.17 1.17 1.02 -1.03c1.69,-1.69 4.44,-1.69 6.14,0.01 1.7,1.7 1.7,4.45 0.01,6.14l-7.16 7.16 -7.31 -7.32c-1.7,-1.7 -1.71,-4.45 -0.01,-6.14zm6.47 8.7l0 -1.04c0,-0.62 -0.11,-0.88 -0.94,-1.49 -0.15,-0.11 0.11,-0.15 0.42,-0.16 0.47,0 0.92,0 0.92,0 0.46,0 0.96,0.16 1.04,0.68 0.11,0.7 0.09,2.01 0.09,2.01l1.52 0c0.04,-0.41 0.03,-0.81 -0.02,-1.21 -0.04,-0.4 -0.11,-0.78 -0.32,-1.12 -0.1,-0.16 -0.21,-0.29 -0.34,-0.39 -0.39,-0.33 -0.92,-0.43 -1.45,-0.33 -0.12,0.01 -0.79,0.17 -0.8,-0.04 0.04,-0.39 2.99,0.11 2.99,-3.29l-1.57 0c0.11,2.26 -1.54,3.18 -1.54,2.88l0 -2.88 -1.57 0 0 6.38 1.57 0z"/>
   <path class="fil1" d="M29.04 7.83c1.7,1.69 1.69,4.44 0,6.14l-1.17 1.17 1.02 1.02c1.69,1.69 1.69,4.44 -0.01,6.14 -1.7,1.7 -4.45,1.7 -6.14,0.01l-7.16 -7.16 7.32 -7.31c1.7,-1.7 4.45,-1.71 6.14,-0.01zm-9.28 6.47l1.04 0c0.62,0 0.88,-0.11 1.48,-0.94 0.11,-0.15 0.15,0.11 0.17,0.42 0,0.47 0,0.92 0,0.92 0,0.46 -0.16,0.96 -0.68,1.04 -0.71,0.11 -2.01,0.09 -2.01,0.09l0 1.52c0.4,0.04 0.81,0.03 1.21,-0.02 0.39,-0.04 0.78,-0.11 1.12,-0.32 0.15,-0.1 0.28,-0.21 0.39,-0.34 0.32,-0.39 0.42,-0.92 0.33,-1.45 -0.01,-0.12 -0.17,-0.79 0.04,-0.8 0.39,0.04 -0.12,2.99 3.29,2.99l0 -1.57c-2.26,0.11 -3.18,-1.54 -2.88,-1.54l2.88 0 0 -1.57 -6.38 0 0 1.57z"/>
   <path class="fil2" d="M22.48 29.04c-1.69,1.7 -4.44,1.69 -6.14,0l-1.17 -1.17 -1.02 1.02c-1.69,1.69 -4.44,1.69 -6.14,-0.01 -1.7,-1.7 -1.7,-4.45 -0.01,-6.14l7.16 -7.16 7.32 7.32c1.69,1.7 1.7,4.45 0,6.14z"/>
   <path class="fil3" d="M1.27 22.48c-1.7,-1.69 -1.69,-4.44 0.01,-6.14l1.17 -1.17 -1.03 -1.02c-1.69,-1.69 -1.69,-4.44 0.01,-6.14 1.7,-1.7 4.45,-1.7 6.14,-0.01l7.16 7.16 -7.32 7.32c-1.7,1.69 -4.45,1.7 -6.14,0zm9.28 -6.46l-1.04 0c-0.61,0 -0.88,0.1 -1.48,0.93 -0.11,0.15 -0.15,-0.11 -0.17,-0.41 0,-0.48 0,-0.93 0,-0.93 0.01,-0.45 0.17,-0.96 0.69,-1.04 0.7,-0.11 2,-0.09 2,-0.09l0 -1.51c-0.4,-0.04 -0.81,-0.04 -1.21,0.01 -0.39,0.05 -0.77,0.11 -1.12,0.33 -0.15,0.09 -0.28,0.2 -0.39,0.33 -0.32,0.39 -0.42,0.92 -0.33,1.46 0.02,0.12 0.17,0.78 -0.04,0.8 -0.38,-0.05 0.12,-3 -3.29,-3l0 1.57c2.26,-0.11 3.18,1.55 2.88,1.55l-2.88 0 0 1.56 6.38 0 0 -1.56z"/>
   <path class="fil4" d="M10.9 22.61l0.81 2.81 0.81 0 0 -3.33 -0.81 0 0 1.59c0,0.16 0.02,0.32 0.06,0.47 0.07,0.22 0.19,0.46 0.42,0.63 0.04,0.03 0.02,0.04 -0.04,0.06 -0.24,0.05 -0.47,-0.1 -0.54,-0.34l-0.71 -2.41 -0.81 0 0 3.33 0.81 0 0 -2.81z"/>
   <path id="_1" class="fil4" d="M14.4 23.39l0 0.1c-0.09,-0.09 -0.21,-0.15 -0.36,-0.17 -0.68,-0.09 -1.21,0.44 -1.24,0.99 -0.05,0.97 0.6,1.16 1.07,1.16 0.21,0 0.39,-0.1 0.53,-0.24l0 0.16 0.82 0 0 -2 -0.82 0zm0 1.08c-0.12,0.01 -0.23,0.09 -0.28,0.22 -0.19,0.41 -0.18,0.63 -0.28,0.63 -0.11,0 -0.25,-0.44 -0.26,-0.96 -0.01,-0.23 0.07,-0.65 0.27,-0.85 0.18,-0.17 0.53,0.04 0.55,0.53l0 0.43 0 0z"/>
   <path id="_2" class="fil4" d="M16.36 25.39l0 -2.09 -0.82 0 0 2.09 0.82 0zm-0.41 -3.33c-0.22,0 -0.41,0.18 -0.41,0.41 0,0.23 0.19,0.41 0.41,0.41 0.23,0 0.41,-0.18 0.41,-0.41 0,-0.23 -0.18,-0.41 -0.41,-0.41l0 0z"/>
   <polygon id="_3" class="fil4" points="17.5,25.39 17.5,22.06 16.68,22.06 16.68,25.39 "/>
   <path id="_4" class="fil4" d="M19.86 24.47c-0.53,-0.18 -0.97,0.1 -1.22,-0.09 -0.24,-0.19 0.02,-0.92 0.33,-0.92 0.32,0 0.32,0.63 0.32,0.63l0.77 0.01c0,-0.52 -0.58,-0.79 -1.08,-0.79 -0.5,0 -1.26,0.16 -1.18,0.8 0.08,0.66 1.41,0.33 1.49,0.64 0.08,0.34 -0.16,0.57 -0.26,0.57 -0.07,0 -0.15,-0.12 -0.26,-0.36 -0.11,-0.25 -0.28,-0.25 -0.28,-0.25l-0.76 0c0,0 -0.03,0.76 1.29,0.76 1.38,0 1.22,-0.87 0.84,-1l0 0z"/>
  </g>
 </g>
</svg>
