<?xml version="1.0" encoding="UTF-8"?>
<!DOCTYPE svg PUBLIC "-//W3C//DTD SVG 1.1//EN" "http://www.w3.org/Graphics/SVG/1.1/DTD/svg11.dtd">
<!-- Creator: CorelDRAW 2026 -->
<svg xmlns="http://www.w3.org/2000/svg" xml:space="preserve" width="962px" height="435px" version="1.1" style="shape-rendering:geometricPrecision; text-rendering:geometricPrecision; image-rendering:optimizeQuality; fill-rule:evenodd; clip-rule:evenodd"
viewBox="0 0 89.35 40.4"
 xmlns:xlink="http://www.w3.org/1999/xlink"
 xmlns:xodm="http://www.corel.com/coreldraw/odm/2003">
 <defs>
  <style type="text/css">
   <![CDATA[
    .fil1 {fill:#FEFEFE;fill-rule:nonzero}
    .fil0 {fill:url(#id0)}
    .fil2 {fill:url(#id1);fill-rule:nonzero}
   ]]>
  </style>
  <radialGradient id="id0" gradientUnits="userSpaceOnUse" gradientTransform="matrix(2.35982 0.369582 -0.500237 3.19403 1 -38)" cx="5.34" cy="16.56" r="20.54" fx="5.34" fy="16.56">
   <stop offset="0" style="stop-opacity:1; stop-color:#AA00BA"/>
   <stop offset="0.25098" style="stop-opacity:1; stop-color:#BF19B4"/>
   <stop offset="0.431373" style="stop-opacity:1; stop-color:#FE4230"/>
   <stop offset="0.54902" style="stop-opacity:1; stop-color:#FE529A"/>
   <stop offset="0.741176" style="stop-opacity:1; stop-color:#DD67EE"/>
   <stop offset="0.94902" style="stop-opacity:1; stop-color:#4B73FF"/>
   <stop offset="1" style="stop-opacity:1; stop-color:#4B73FF"/>
  </radialGradient>
  <radialGradient id="id1" gradientUnits="userSpaceOnUse" gradientTransform="matrix(1.36483 3.00721 -7.30201 6.09407 -144 -85)" xlink:href="#id0" cx="56.81" cy="-16.88" r="20.6" fx="56.81" fy="-16.88">
  </radialGradient>
 </defs>
 <g id="Слой_x0020_1">
  <metadata id="CorelCorpID_0Corel-Layer"/>
  <path class="fil0" d="M0 28.28c0,-6.7 5.44,-12.12 12.15,-12.12l4.62 0 0 -4.04c0,-6.69 5.44,-12.12 12.16,-12.12 6.71,0 12.15,5.43 12.15,12.12l0 28.28 -28.93 0c-6.71,0 -12.15,-5.43 -12.15,-12.12z"/>
  <path class="fil1" d="M25.19 35.16l0 -3.05c0,-1.8 -0.31,-2.57 -2.73,-4.33 -0.44,-0.32 0.3,-0.43 1.21,-0.48 1.37,0 2.7,0 2.7,0 1.33,0 2.8,0.47 3.04,1.99 0.32,2.06 0.25,5.87 0.25,5.87l4.44 0c0.11,-1.18 0.09,-2.37 -0.04,-3.54 -0.14,-1.16 -0.33,-2.27 -0.95,-3.27 -0.28,-0.46 -0.61,-0.84 -0.98,-1.14 -1.16,-0.96 -2.69,-1.24 -4.26,-0.97 -0.35,0.04 -2.29,0.5 -2.34,-0.11 0.13,-1.14 8.75,0.33 8.75,-9.62l-4.58 0c0.31,6.6 -4.51,9.3 -4.51,8.42l0 -8.42 -4.59 0 0 18.65 4.59 0z"/>
  <path class="fil2" d="M50.16 17.86l1.99 6.93 2 0 0 -8.19 -2 0 0 3.91c0,0.38 0.04,0.77 0.15,1.14 0.16,0.54 0.47,1.15 1.04,1.56 0.08,0.06 0.03,0.1 -0.1,0.13 -0.59,0.13 -1.18,-0.24 -1.35,-0.82l-1.73 -5.92 -2 0 0 8.19 2 0 0 -6.93z"/>
  <path id="_1" class="fil2" d="M58.77 19.78l0 0.24c-0.23,-0.2 -0.53,-0.36 -0.89,-0.41 -1.68,-0.21 -2.98,1.08 -3.05,2.45 -0.13,2.37 1.47,2.84 2.63,2.84 0.52,0 0.96,-0.25 1.31,-0.58l0 0.38 2.02 0 0 -4.92 -2.02 0zm0 2.67c-0.3,0.03 -0.56,0.22 -0.7,0.52 -0.46,1.01 -0.44,1.57 -0.69,1.57 -0.27,0 -0.61,-1.08 -0.63,-2.37 -0.04,-0.56 0.17,-1.59 0.66,-2.08 0.45,-0.42 1.3,0.1 1.36,1.3l0 1.06 0 0z"/>
  <path id="_2" class="fil2" d="M63.59 24.71l0 -5.15 -2.01 0 0 5.15 2.01 0zm-1 -8.2c-0.56,0 -1.01,0.45 -1.01,1.01 0,0.56 0.45,1.01 1,1.01 0.56,0 1.01,-0.45 1.01,-1.01 0,-0.56 -0.45,-1.01 -1,-1.01l0 0z"/>
  <polygon id="_3" class="fil2" points="66.39,24.7 66.39,16.51 64.37,16.51 64.37,24.7 "/>
  <path id="_4" class="fil2" d="M72.2 22.45c-1.3,-0.45 -2.39,0.23 -3,-0.23 -0.6,-0.46 0.04,-2.28 0.82,-2.28 0.77,0 0.77,1.57 0.77,1.57l1.91 0.02c0,-1.29 -1.44,-1.94 -2.67,-1.94 -1.22,0 -3.09,0.39 -2.9,1.97 0.2,1.62 3.47,0.81 3.66,1.58 0.21,0.83 -0.38,1.4 -0.64,1.4 -0.15,0 -0.36,-0.31 -0.64,-0.9 -0.27,-0.6 -0.69,-0.61 -0.69,-0.61l-1.87 0c0,0 -0.08,1.87 3.19,1.87 3.38,0 3,-2.13 2.06,-2.45l0 0z"/>
  <path id="_5" class="fil2" d="M50.17 35.01l0 -3.74 2.16 0 0 -0.36 -2.16 0 0 -1.59c0,-0.79 -0.17,-1 -1.19,-1.82 -0.34,-0.27 0.68,-0.32 1.19,-0.33 0.02,0 1.24,0 1.24,0 0.51,0 0.81,0.57 1.4,1.4 0.25,0.34 0.61,0.56 0.94,0.56l0.42 0 0 -2.31 -6.01 0 0 8.19 2.01 0 0 0 0 0z"/>
  <path id="_6" class="fil2" d="M56.59 34.93l0 -5.15 -2.02 0 0 5.15 2.02 0zm-1.01 -8.2c-0.55,0 -1.01,0.45 -1.01,1.01 0,0.56 0.46,1.01 1.01,1.01 0.56,0 1.01,-0.45 1.01,-1.01 0,-0.56 -0.45,-1.01 -1.01,-1.01l0 0z"/>
  <path id="_7" class="fil2" d="M60.8 30l-3.43 0 0 4.93 2.01 0c0,-0.03 0.01,-2.65 0,-2.57 -0.03,-0.67 -0.22,-1.01 -1.2,-1.72 -0.3,-0.22 0.69,-0.28 1.21,-0.28 0.04,0 0.51,0 0.51,0 0.24,0 1.45,0.19 1.45,2.96l0 1.61 2.02 0 0 -2.63c0,-1.41 -1.17,-2.3 -2.57,-2.3l0 0z"/>
  <path id="_8" class="fil2" d="M67.82 30l0 0.24c-0.24,-0.2 -0.53,-0.36 -0.9,-0.4 -1.67,-0.22 -2.98,1.07 -3.05,2.44 -0.12,2.37 1.48,2.84 2.63,2.84 0.52,0 0.96,-0.25 1.32,-0.58l0 0.39 2.01 0 0 -4.93 -2.01 0zm0 2.67c-0.3,0.03 -0.57,0.23 -0.71,0.52 -0.46,1.01 -0.44,1.57 -0.69,1.57 -0.26,0 -0.61,-1.08 -0.63,-2.37 -0.03,-0.56 0.17,-1.59 0.67,-2.08 0.45,-0.42 1.29,0.1 1.36,1.3l0 1.06 0 0z"/>
  <path id="_9" class="fil2" d="M74.06 30l-3.44 0 0 4.93 2.02 0c0,-0.03 0,-2.65 -0.01,-2.57 -0.02,-0.67 -0.21,-1.01 -1.19,-1.72 -0.31,-0.22 0.69,-0.28 1.2,-0.28 0.05,0 0.52,0 0.52,0 0.24,0 1.45,0.19 1.45,2.96l0 1.61 2.01 0 0 -2.63c0,-1.41 -1.16,-2.3 -2.56,-2.3l0 0z"/>
  <path id="_10" class="fil2" d="M81.3 32.65c-0.33,0 -0.63,0.21 -0.78,0.54 -0.46,1.01 -0.34,1.57 -0.59,1.57 -0.27,0 -0.71,-1.09 -0.73,-2.38 -0.01,-0.36 0.03,-0.9 0.24,-1.4 0.08,-0.2 0.26,-0.53 0.41,-0.67 0.48,-0.46 1.29,0.17 1.21,1.59l2.04 0c0,-1.41 -1.5,-2.09 -2.93,-2.09 -1.85,0 -3,1.03 -3.05,2.46 -0.07,2.38 1.72,2.89 3.14,2.85 1.33,-0.04 2.86,-0.92 2.86,-2.47l-1.82 0z"/>
  <path id="_11" class="fil2" d="M87.71 32.69c-0.33,0 -0.64,0.21 -0.78,0.53 -0.47,1 -0.43,1.54 -0.68,1.54 -0.21,0 -0.49,-0.67 -0.6,-1.59 0.75,-0.27 3.11,-1.18 3.11,-2.14 -0.03,-0.88 -1.15,-1.22 -2.19,-1.22 -1.86,0 -3,1.11 -3.04,2.51 -0.08,2.34 1.61,2.84 3.03,2.8 1.33,-0.04 2.79,-1.05 2.79,-2.43l-1.64 0 0 0zm-2.11 -0.26c0,-0.35 0.09,-1.6 0.71,-2.16 0.48,-0.45 1.12,0.62 0.6,1.51 -0.24,0.4 -0.65,0.66 -1.29,1.01 -0.01,-0.12 -0.02,-0.24 -0.02,-0.36l0 0z"/>
 </g>
</svg>
