<?xml version="1.0" encoding="UTF-8"?>
<!DOCTYPE svg PUBLIC "-//W3C//DTD SVG 1.1//EN" "http://www.w3.org/Graphics/SVG/1.1/DTD/svg11.dtd">
<!-- Creator: CorelDRAW 2026 -->
<svg xmlns="http://www.w3.org/2000/svg" xml:space="preserve" width="512px" height="162px" version="1.1" style="shape-rendering:geometricPrecision; text-rendering:geometricPrecision; image-rendering:optimizeQuality; fill-rule:evenodd; clip-rule:evenodd"
viewBox="0 0 99.2 31.35"
 xmlns:xlink="http://www.w3.org/1999/xlink"
 xmlns:xodm="http://www.corel.com/coreldraw/odm/2003">
 <defs>
  <style type="text/css">
   <![CDATA[
    .fil0 {fill:url(#id0);fill-rule:nonzero}
    .fil1 {fill:url(#id1);fill-rule:nonzero}
   ]]>
  </style>
  <radialGradient id="id0" gradientUnits="userSpaceOnUse" gradientTransform="matrix(1.36483 3.0072 -7.302 6.09404 -426 152)" cx="44.51" cy="-56.11" r="34.62" fx="44.51" fy="-56.11">
   <stop offset="0" style="stop-opacity:1; stop-color:#AA00BA"/>
   <stop offset="0.25098" style="stop-opacity:1; stop-color:#BF19B4"/>
   <stop offset="0.431373" style="stop-opacity:1; stop-color:#FE4230"/>
   <stop offset="0.54902" style="stop-opacity:1; stop-color:#FE529A"/>
   <stop offset="0.741176" style="stop-opacity:1; stop-color:#DD67EE"/>
   <stop offset="0.94902" style="stop-opacity:1; stop-color:#4B73FF"/>
   <stop offset="1" style="stop-opacity:1; stop-color:#4B73FF"/>
  </radialGradient>
  <radialGradient id="id1" gradientUnits="userSpaceOnUse" gradientTransform="matrix(0.943995 6.65592 -5.05049 13.4882 -283 670)" xlink:href="#id0" cx="4.55" cy="-56.11" r="15.67" fx="4.55" fy="-56.11">
  </radialGradient>
 </defs>
 <g id="Слой_x0020_1">
  <metadata id="CorelCorpID_0Corel-Layer"/>
  <g id="_596189362384">
   <path class="fil0" d="M33.33 2.27l3.34 11.65 3.37 0 0 -13.77 -3.37 0 0 6.57c0,0.65 0.08,1.3 0.26,1.92 0.27,0.91 0.78,1.93 1.74,2.63 0.15,0.1 0.05,0.17 -0.16,0.22 -0.99,0.21 -1.98,-0.41 -2.27,-1.39l-2.91 -9.95 -3.36 0 0 13.77 3.36 0 0 -11.65z"/>
   <path id="_1" class="fil0" d="M47.81 5.5l0 0.41c-0.39,-0.35 -0.89,-0.61 -1.51,-0.69 -2.81,-0.36 -5.01,1.81 -5.12,4.11 -0.21,3.99 2.48,4.77 4.42,4.77 0.87,0 1.61,-0.41 2.21,-0.97l0 0.65 3.39 0 0 -8.28 -3.39 0zm0 4.48c-0.5,0.05 -0.95,0.39 -1.18,0.89 -0.78,1.69 -0.74,2.63 -1.16,2.63 -0.45,0 -1.03,-1.82 -1.07,-3.98 -0.05,-0.94 0.3,-2.67 1.13,-3.51 0.75,-0.7 2.17,0.18 2.28,2.19l0 1.78 0 0z"/>
   <path id="_2" class="fil0" d="M55.91 13.78l0 -8.65 -3.39 0 0 8.65 3.39 0zm-1.69 -13.77c-0.94,0 -1.7,0.76 -1.7,1.69 0,0.94 0.76,1.69 1.7,1.69 0.93,0 1.69,-0.75 1.69,-1.69 0,-0.93 -0.76,-1.69 -1.69,-1.69l0 0z"/>
   <polygon id="_3" class="fil0" points="60.61,13.78 60.61,0 57.22,0 57.22,13.78 "/>
   <path id="_4" class="fil0" d="M70.37 9.98c-2.18,-0.74 -4.01,0.39 -5.03,-0.38 -1.02,-0.78 0.07,-3.82 1.37,-3.82 1.3,0 1.3,2.63 1.3,2.63l3.21 0.04c0,-2.17 -2.42,-3.26 -4.5,-3.27 -2.04,0 -5.18,0.66 -4.86,3.31 0.34,2.72 5.83,1.36 6.15,2.66 0.35,1.4 -0.64,2.35 -1.08,2.35 -0.25,0 -0.6,-0.52 -1.07,-1.52 -0.46,-1 -1.16,-1.02 -1.16,-1.02l-3.14 0c0,0 -0.13,3.14 5.35,3.14 5.69,0 5.05,-3.57 3.46,-4.12l0 0z"/>
   <path id="_5" class="fil0" d="M33.35 31.09l0 -6.28 3.64 0 0 -0.59 -3.64 0 0 -2.68c0,-1.33 -0.28,-1.69 -2.01,-3.07 -0.56,-0.45 1.15,-0.54 2.02,-0.55 0.02,0 2.07,0 2.07,0 0.86,0 1.36,0.97 2.36,2.36 0.42,0.57 1.02,0.94 1.58,0.94l0.7 0 0 -3.89 -10.1 0 0 13.77 3.38 0 0 -0.01 0 0z"/>
   <path id="_6" class="fil0" d="M44.14 30.96l0 -8.65 -3.39 0 0 8.65 3.39 0zm-1.69 -13.77c-0.94,0 -1.7,0.76 -1.7,1.69 0,0.94 0.76,1.69 1.69,1.69 0.94,0 1.7,-0.75 1.7,-1.69 0,-0.93 -0.76,-1.69 -1.69,-1.69l0 0z"/>
   <path id="_7" class="fil0" d="M51.22 22.68l-5.77 0 0 8.28 3.38 0c0,-0.05 0.01,-4.46 0,-4.32 -0.05,-1.12 -0.37,-1.69 -2.01,-2.89 -0.51,-0.37 1.16,-0.46 2.02,-0.47 0.08,0 0.87,0 0.87,0 0.4,0 2.44,0.32 2.44,4.98l0 2.7 3.38 0 0 -4.42c0,-2.36 -1.96,-3.87 -4.31,-3.86l0 0z"/>
   <path id="_8" class="fil0" d="M63.01 22.68l0 0.41c-0.39,-0.35 -0.89,-0.61 -1.5,-0.69 -2.82,-0.36 -5.01,1.81 -5.13,4.11 -0.2,3.99 2.48,4.77 4.43,4.77 0.87,0 1.61,-0.41 2.2,-0.97l0 0.65 3.39 0 0 -8.28 -3.39 0zm0 4.48c-0.5,0.05 -0.95,0.38 -1.18,0.89 -0.77,1.69 -0.74,2.63 -1.16,2.63 -0.45,0 -1.03,-1.82 -1.06,-3.98 -0.06,-0.94 0.29,-2.67 1.12,-3.51 0.75,-0.7 2.18,0.18 2.28,2.19l0 1.78 0 0z"/>
   <path id="_9" class="fil0" d="M73.5 22.68l-5.77 0 0 8.28 3.39 0c-0.01,-0.05 0,-4.46 -0.01,-4.32 -0.04,-1.12 -0.37,-1.69 -2.01,-2.89 -0.51,-0.37 1.16,-0.46 2.03,-0.47 0.07,0 0.86,0 0.86,0 0.4,0 2.44,0.32 2.44,4.98l0 2.7 3.39 0 0 -4.42c0,-2.36 -1.97,-3.87 -4.32,-3.86l0 0z"/>
   <path id="_10" class="fil0" d="M85.68 27.13c-0.55,0 -1.07,0.35 -1.32,0.9 -0.77,1.71 -0.57,2.65 -0.99,2.65 -0.45,0 -1.2,-1.83 -1.23,-4 -0.01,-0.6 0.06,-1.52 0.41,-2.36 0.13,-0.33 0.44,-0.88 0.69,-1.12 0.81,-0.77 2.16,0.29 2.03,2.67l3.43 0c0,-2.37 -2.52,-3.51 -4.92,-3.51 -3.12,0 -5.05,1.74 -5.13,4.13 -0.12,4.01 2.88,4.86 5.28,4.79 2.23,-0.07 4.8,-1.55 4.8,-4.15l-3.05 0z"/>
   <path id="_11" class="fil0" d="M96.45 27.21c-0.56,0 -1.07,0.34 -1.32,0.88 -0.78,1.67 -0.71,2.59 -1.14,2.59 -0.35,0 -0.81,-1.13 -1,-2.68 1.26,-0.45 5.22,-1.98 5.22,-3.59 -0.05,-1.48 -1.94,-2.05 -3.68,-2.05 -3.12,0 -5.03,1.87 -5.11,4.22 -0.12,3.93 2.7,4.76 5.09,4.7 2.24,-0.06 4.69,-1.76 4.69,-4.07l-2.75 0 0 0zm-3.55 -0.45c-0.01,-0.59 0.15,-2.69 1.19,-3.63 0.82,-0.75 1.89,1.05 1.01,2.53 -0.4,0.69 -1.08,1.12 -2.17,1.71 -0.01,-0.2 -0.02,-0.4 -0.03,-0.61l0 0z"/>
   <path class="fil1" d="M7.27 31.35l0 -5.12c0,-3.03 -0.48,-4.33 -4.32,-7.28 -0.7,-0.54 0.48,-0.73 1.91,-0.82 2.18,0 4.28,0 4.28,0 2.1,0.01 4.44,0.8 4.82,3.35 0.5,3.47 0.4,9.87 0.4,9.87l7.03 0c0.18,-1.98 0.14,-3.98 -0.07,-5.96 -0.21,-1.93 -0.52,-3.81 -1.51,-5.49 -0.44,-0.76 -0.96,-1.4 -1.55,-1.92 -1.82,-1.6 -4.25,-2.07 -6.74,-1.63 -0.55,0.07 -3.63,0.84 -3.7,-0.18 0.2,-1.91 13.86,0.55 13.86,-16.17l-7.27 0c0.5,11.1 -7.14,15.63 -7.14,14.15l0 -14.15 -7.27 0 0 31.35 7.27 0z"/>
  </g>
 </g>
</svg>
